<svg width="60" height="60" viewBox="0 0 60 60" fill="none" xmlns="http://www.w3.org/2000/svg">
<path d="M59.9662 13.5736C59.9884 13.6536 60 13.736 60 13.8189V26.6977C60 27.0342 59.8147 27.3449 59.5142 27.5123L48.3864 33.7358V46.0712C48.3864 46.4069 48.2028 46.7167 47.9031 46.8858L24.6747 59.8749C24.6216 59.9043 24.5636 59.9231 24.5056 59.943C24.4838 59.9501 24.4633 59.963 24.4403 59.9688C24.278 60.0104 24.1073 60.0104 23.9449 59.9688C23.9183 59.9618 23.8941 59.9477 23.8688 59.9383C23.8156 59.9196 23.76 59.9031 23.7093 59.8749L0.485761 46.8858C0.185478 46.7182 0 46.4076 0 46.0712V7.43464C0 7.35013 0.0120836 7.26796 0.0338341 7.18815C0.0410843 7.16115 0.0580014 7.1365 0.0676683 7.1095C0.0857937 7.0602 0.102711 7.00973 0.129295 6.96395C0.14742 6.93343 0.174004 6.90878 0.195755 6.88061C0.223547 6.84305 0.248923 6.80432 0.281548 6.77145C0.309341 6.74445 0.345592 6.7245 0.377009 6.70102C0.412051 6.67285 0.443469 6.64233 0.483345 6.62003H0.484553L12.0969 0.125445C12.3961 -0.0418148 12.7644 -0.0418148 13.0636 0.125445L24.676 6.62003H24.6784C24.717 6.64351 24.7497 6.67285 24.7847 6.69985C24.8161 6.72332 24.8512 6.74445 24.879 6.77028C24.9128 6.80432 24.937 6.84305 24.966 6.88061C24.9865 6.90878 25.0143 6.93343 25.0312 6.96395C25.059 7.0109 25.0747 7.0602 25.0941 7.1095C25.1037 7.1365 25.1206 7.16115 25.1279 7.18932C25.1501 7.26931 25.1615 7.35178 25.1617 7.43464V31.5666L34.8383 26.1543V13.8177C34.8383 13.7356 34.8504 13.6522 34.8721 13.5736C34.8806 13.5454 34.8963 13.5207 34.906 13.4938C34.9253 13.4445 34.9422 13.394 34.9688 13.3482C34.9869 13.3177 35.0135 13.293 35.034 13.2649C35.063 13.2273 35.0872 13.1886 35.121 13.1557C35.1488 13.1287 35.1839 13.1088 35.2153 13.0853C35.2515 13.0571 35.283 13.0266 35.3216 13.0043H35.3228L46.9364 6.5097C47.2356 6.34219 47.6039 6.34219 47.9031 6.5097L59.5154 13.0043C59.5565 13.0278 59.588 13.0571 59.6242 13.0841C59.6544 13.1076 59.6895 13.1287 59.7172 13.1545C59.7511 13.1886 59.7752 13.2273 59.8042 13.2649C59.826 13.293 59.8526 13.3177 59.8695 13.3482C59.8973 13.394 59.913 13.4445 59.9323 13.4938C59.9432 13.5207 59.9589 13.5454 59.9662 13.5736ZM58.0642 26.1543V15.4446L54.0005 17.7171L48.3864 20.8569V31.5666L58.0654 26.1543H58.0642ZM46.4519 45.5277V34.811L40.9296 37.8746L25.1605 46.617V57.4346L46.4519 45.5277ZM1.9358 9.06034V45.5277L23.2247 57.4335V46.6181L12.103 40.5039L12.0993 40.5015L12.0945 40.4992C12.057 40.478 12.0256 40.4475 11.9906 40.4217C11.9604 40.3982 11.9253 40.3794 11.8987 40.3536L11.8963 40.3501C11.8649 40.3208 11.8432 40.2844 11.8166 40.2515C11.7924 40.2198 11.7634 40.1928 11.7441 40.1599L11.7429 40.1564C11.7211 40.1212 11.7078 40.079 11.6921 40.039C11.6764 40.0038 11.6559 39.971 11.6462 39.9334V39.9322C11.6341 39.8876 11.6317 39.8407 11.6269 39.7949C11.622 39.7597 11.6124 39.7245 11.6124 39.6893V39.6869V14.4727L5.99952 11.3316L1.9358 9.06152V9.06034ZM12.5815 2.02464L2.90611 7.43464L12.579 12.8446L22.2532 7.43347L12.579 2.02464H12.5815ZM17.6131 35.7876L23.2259 32.6489V9.06034L19.1622 11.3328L13.5482 14.4727V38.0612L17.6131 35.7876ZM47.4198 8.40889L37.7456 13.8189L47.4198 19.2289L57.0927 13.8177L47.4198 8.40889ZM46.4519 20.8569L40.8378 17.7171L36.7741 15.4446V26.1543L42.3869 29.293L46.4519 31.5666V20.8569ZM24.1914 44.9913L38.3812 37.1222L45.4743 33.19L35.8074 27.7835L24.6772 34.0081L14.533 39.681L24.1914 44.9913Z" fill="#FF2D20"/>
</svg>
